<mxfile>
    <diagram id="9-YNZvSUs1vkJCp9cxl3" name="Page-1">
        <mxGraphModel dx="1181" dy="860" grid="1" gridSize="10" guides="1" tooltips="1" connect="1" arrows="1" fold="1" page="1" pageScale="1" pageWidth="827" pageHeight="1169" math="0" shadow="0">
            <root>
                <mxCell id="0"/>
                <mxCell id="1" parent="0"/>
                <mxCell id="ds_R7acV1yjQgHGQ___--1" value="" style="shape=umlLifeline;participant=umlActor;perimeter=lifelinePerimeter;whiteSpace=wrap;html=1;container=1;collapsible=0;recursiveResize=0;verticalAlign=top;spacingTop=36;outlineConnect=0;size=60;" parent="1" vertex="1">
                    <mxGeometry x="120" y="110" width="30" height="510" as="geometry"/>
                </mxCell>
                <mxCell id="ds_R7acV1yjQgHGQ___--5" value="" style="html=1;points=[];perimeter=orthogonalPerimeter;fillColor=#dae8fc;strokeColor=#6c8ebf;" parent="ds_R7acV1yjQgHGQ___--1" vertex="1">
                    <mxGeometry x="10" y="80" width="10" height="380" as="geometry"/>
                </mxCell>
                <mxCell id="ds_R7acV1yjQgHGQ___--2" value="API" style="shape=umlLifeline;perimeter=lifelinePerimeter;whiteSpace=wrap;html=1;container=1;collapsible=0;recursiveResize=0;outlineConnect=0;size=30;fillColor=#dae8fc;strokeColor=#6c8ebf;" parent="1" vertex="1">
                    <mxGeometry x="280" y="120" width="100" height="500" as="geometry"/>
                </mxCell>
                <mxCell id="ds_R7acV1yjQgHGQ___--6" value="" style="html=1;points=[];perimeter=orthogonalPerimeter;fillColor=#dae8fc;strokeColor=#6c8ebf;" parent="ds_R7acV1yjQgHGQ___--2" vertex="1">
                    <mxGeometry x="45" y="80" width="10" height="370" as="geometry"/>
                </mxCell>
                <mxCell id="ds_R7acV1yjQgHGQ___--3" value="Servicio autenticación" style="shape=umlLifeline;perimeter=lifelinePerimeter;whiteSpace=wrap;html=1;container=1;collapsible=0;recursiveResize=0;outlineConnect=0;size=30;fillColor=#dae8fc;strokeColor=#6c8ebf;" parent="1" vertex="1">
                    <mxGeometry x="460" y="120" width="100" height="500" as="geometry"/>
                </mxCell>
                <mxCell id="ds_R7acV1yjQgHGQ___--9" value="" style="html=1;points=[];perimeter=orthogonalPerimeter;fillColor=#dae8fc;strokeColor=#6c8ebf;" parent="ds_R7acV1yjQgHGQ___--3" vertex="1">
                    <mxGeometry x="45" y="90" width="10" height="360" as="geometry"/>
                </mxCell>
                <mxCell id="ds_R7acV1yjQgHGQ___--12" style="edgeStyle=orthogonalEdgeStyle;rounded=0;orthogonalLoop=1;jettySize=auto;html=1;" parent="ds_R7acV1yjQgHGQ___--3" edge="1">
                    <mxGeometry relative="1" as="geometry">
                        <mxPoint x="45" y="120" as="sourcePoint"/>
                        <mxPoint x="45" y="140" as="targetPoint"/>
                        <Array as="points">
                            <mxPoint x="44" y="120"/>
                            <mxPoint x="30" y="120"/>
                            <mxPoint x="30" y="140"/>
                        </Array>
                    </mxGeometry>
                </mxCell>
                <mxCell id="ds_R7acV1yjQgHGQ___--13" value="1.2: compruebaToken(token)" style="edgeLabel;html=1;align=center;verticalAlign=middle;resizable=0;points=[];" parent="ds_R7acV1yjQgHGQ___--12" vertex="1" connectable="0">
                    <mxGeometry x="-0.3432" relative="1" as="geometry">
                        <mxPoint x="-76" y="8" as="offset"/>
                    </mxGeometry>
                </mxCell>
                <mxCell id="ds_R7acV1yjQgHGQ___--19" style="edgeStyle=orthogonalEdgeStyle;rounded=0;orthogonalLoop=1;jettySize=auto;html=1;entryX=-0.1;entryY=0.306;entryDx=0;entryDy=0;entryPerimeter=0;" parent="ds_R7acV1yjQgHGQ___--3" target="ds_R7acV1yjQgHGQ___--9" edge="1">
                    <mxGeometry relative="1" as="geometry">
                        <mxPoint x="44" y="171" as="sourcePoint"/>
                        <mxPoint x="45" y="185" as="targetPoint"/>
                        <Array as="points">
                            <mxPoint x="30" y="171"/>
                            <mxPoint x="30" y="200"/>
                        </Array>
                    </mxGeometry>
                </mxCell>
                <mxCell id="ds_R7acV1yjQgHGQ___--20" value="1.3: compruebaPermisos(rol)" style="edgeLabel;html=1;align=center;verticalAlign=middle;resizable=0;points=[];" parent="ds_R7acV1yjQgHGQ___--19" vertex="1" connectable="0">
                    <mxGeometry x="-0.3432" relative="1" as="geometry">
                        <mxPoint x="-76" y="8" as="offset"/>
                    </mxGeometry>
                </mxCell>
                <mxCell id="ds_R7acV1yjQgHGQ___--4" value="*" style="shape=umlLifeline;perimeter=lifelinePerimeter;whiteSpace=wrap;html=1;container=1;collapsible=0;recursiveResize=0;outlineConnect=0;size=30;fillColor=#dae8fc;strokeColor=#6c8ebf;" parent="1" vertex="1">
                    <mxGeometry x="650" y="120" width="100" height="500" as="geometry"/>
                </mxCell>
                <mxCell id="ds_R7acV1yjQgHGQ___--25" value="" style="html=1;points=[];perimeter=orthogonalPerimeter;fillColor=#dae8fc;strokeColor=#6c8ebf;" parent="ds_R7acV1yjQgHGQ___--4" vertex="1">
                    <mxGeometry x="45" y="300" width="10" height="50" as="geometry"/>
                </mxCell>
                <mxCell id="ds_R7acV1yjQgHGQ___--7" style="edgeStyle=orthogonalEdgeStyle;rounded=0;orthogonalLoop=1;jettySize=auto;html=1;" parent="1" source="ds_R7acV1yjQgHGQ___--5" edge="1">
                    <mxGeometry relative="1" as="geometry">
                        <mxPoint x="326" y="213" as="targetPoint"/>
                        <Array as="points">
                            <mxPoint x="326" y="213"/>
                        </Array>
                    </mxGeometry>
                </mxCell>
                <mxCell id="ds_R7acV1yjQgHGQ___--8" value="1: método(datos, token)" style="edgeLabel;html=1;align=center;verticalAlign=middle;resizable=0;points=[];" parent="ds_R7acV1yjQgHGQ___--7" vertex="1" connectable="0">
                    <mxGeometry x="-0.4302" y="-2" relative="1" as="geometry">
                        <mxPoint x="28" y="-15" as="offset"/>
                    </mxGeometry>
                </mxCell>
                <mxCell id="ds_R7acV1yjQgHGQ___--10" style="edgeStyle=orthogonalEdgeStyle;rounded=0;orthogonalLoop=1;jettySize=auto;html=1;" parent="1" source="ds_R7acV1yjQgHGQ___--6" edge="1">
                    <mxGeometry relative="1" as="geometry">
                        <mxPoint x="505" y="224" as="targetPoint"/>
                        <Array as="points">
                            <mxPoint x="505" y="224"/>
                        </Array>
                    </mxGeometry>
                </mxCell>
                <mxCell id="ds_R7acV1yjQgHGQ___--11" value="1.1: autoriza(token)" style="edgeLabel;html=1;align=center;verticalAlign=middle;resizable=0;points=[];" parent="ds_R7acV1yjQgHGQ___--10" vertex="1" connectable="0">
                    <mxGeometry x="-0.1812" y="1" relative="1" as="geometry">
                        <mxPoint x="9" y="-13" as="offset"/>
                    </mxGeometry>
                </mxCell>
                <mxCell id="ds_R7acV1yjQgHGQ___--21" value="[token válido]" style="text;html=1;strokeColor=none;fillColor=none;align=center;verticalAlign=middle;whiteSpace=wrap;rounded=0;" parent="1" vertex="1">
                    <mxGeometry x="374" y="270" width="80" height="20" as="geometry"/>
                </mxCell>
                <mxCell id="ds_R7acV1yjQgHGQ___--22" style="edgeStyle=orthogonalEdgeStyle;rounded=0;orthogonalLoop=1;jettySize=auto;html=1;dashed=1;" parent="1" source="ds_R7acV1yjQgHGQ___--9" edge="1">
                    <mxGeometry relative="1" as="geometry">
                        <mxPoint x="336" y="380" as="targetPoint"/>
                        <Array as="points">
                            <mxPoint x="336" y="380"/>
                        </Array>
                    </mxGeometry>
                </mxCell>
                <mxCell id="ds_R7acV1yjQgHGQ___--23" value="1.4: Datos de usuario" style="edgeLabel;html=1;align=center;verticalAlign=middle;resizable=0;points=[];" parent="ds_R7acV1yjQgHGQ___--22" vertex="1" connectable="0">
                    <mxGeometry x="0.1472" y="-1" relative="1" as="geometry">
                        <mxPoint x="6" y="-8" as="offset"/>
                    </mxGeometry>
                </mxCell>
                <mxCell id="ds_R7acV1yjQgHGQ___--26" style="edgeStyle=orthogonalEdgeStyle;rounded=0;orthogonalLoop=1;jettySize=auto;html=1;entryX=-0.057;entryY=0.211;entryDx=0;entryDy=0;entryPerimeter=0;" parent="1" source="ds_R7acV1yjQgHGQ___--6" target="ds_R7acV1yjQgHGQ___--25" edge="1">
                    <mxGeometry relative="1" as="geometry">
                        <Array as="points">
                            <mxPoint x="450" y="431"/>
                        </Array>
                    </mxGeometry>
                </mxCell>
                <mxCell id="ds_R7acV1yjQgHGQ___--28" value="&lt;div&gt;1.5: acción(datos)&lt;/div&gt;" style="edgeLabel;html=1;align=center;verticalAlign=middle;resizable=0;points=[];" parent="ds_R7acV1yjQgHGQ___--26" vertex="1" connectable="0">
                    <mxGeometry x="-0.434" relative="1" as="geometry">
                        <mxPoint x="-7" y="-17" as="offset"/>
                    </mxGeometry>
                </mxCell>
                <mxCell id="ds_R7acV1yjQgHGQ___--29" style="edgeStyle=orthogonalEdgeStyle;rounded=0;orthogonalLoop=1;jettySize=auto;html=1;dashed=1;" parent="1" source="ds_R7acV1yjQgHGQ___--25" edge="1">
                    <mxGeometry relative="1" as="geometry">
                        <mxPoint x="335" y="460" as="targetPoint"/>
                        <Array as="points">
                            <mxPoint x="335" y="460"/>
                        </Array>
                    </mxGeometry>
                </mxCell>
                <mxCell id="ds_R7acV1yjQgHGQ___--30" value="1.6: respuesta" style="edgeLabel;html=1;align=center;verticalAlign=middle;resizable=0;points=[];" parent="ds_R7acV1yjQgHGQ___--29" vertex="1" connectable="0">
                    <mxGeometry x="0.342" y="-1" relative="1" as="geometry">
                        <mxPoint x="-33" y="-9" as="offset"/>
                    </mxGeometry>
                </mxCell>
                <mxCell id="ds_R7acV1yjQgHGQ___--31" style="edgeStyle=orthogonalEdgeStyle;rounded=0;orthogonalLoop=1;jettySize=auto;html=1;dashed=1;" parent="1" source="ds_R7acV1yjQgHGQ___--6" edge="1">
                    <mxGeometry relative="1" as="geometry">
                        <mxPoint x="141" y="474" as="targetPoint"/>
                        <Array as="points">
                            <mxPoint x="260" y="474"/>
                            <mxPoint x="260" y="474"/>
                        </Array>
                    </mxGeometry>
                </mxCell>
                <mxCell id="ds_R7acV1yjQgHGQ___--32" value="1.7: respuesta" style="edgeLabel;html=1;align=center;verticalAlign=middle;resizable=0;points=[];" parent="ds_R7acV1yjQgHGQ___--31" vertex="1" connectable="0">
                    <mxGeometry x="0.0736" relative="1" as="geometry">
                        <mxPoint x="3" y="-14" as="offset"/>
                    </mxGeometry>
                </mxCell>
                <mxCell id="ds_R7acV1yjQgHGQ___--18" value="alt" style="shape=umlFrame;whiteSpace=wrap;html=1;width=30;height=20;" parent="1" vertex="1">
                    <mxGeometry x="340" y="270" width="180" height="60" as="geometry"/>
                </mxCell>
                <mxCell id="ds_R7acV1yjQgHGQ___--35" style="edgeStyle=orthogonalEdgeStyle;rounded=0;orthogonalLoop=1;jettySize=auto;html=1;entryX=1.193;entryY=0.868;entryDx=0;entryDy=0;entryPerimeter=0;dashed=1;" parent="1" source="ds_R7acV1yjQgHGQ___--9" target="ds_R7acV1yjQgHGQ___--6" edge="1">
                    <mxGeometry relative="1" as="geometry">
                        <Array as="points">
                            <mxPoint x="460" y="521"/>
                            <mxPoint x="460" y="521"/>
                        </Array>
                    </mxGeometry>
                </mxCell>
                <mxCell id="ds_R7acV1yjQgHGQ___--37" value="&lt;div&gt;1.8: Error de autenticación&lt;/div&gt;" style="edgeLabel;html=1;align=center;verticalAlign=middle;resizable=0;points=[];" parent="ds_R7acV1yjQgHGQ___--35" vertex="1" connectable="0">
                    <mxGeometry x="0.2286" y="2" relative="1" as="geometry">
                        <mxPoint x="18" y="-13" as="offset"/>
                    </mxGeometry>
                </mxCell>
                <mxCell id="ds_R7acV1yjQgHGQ___--38" style="edgeStyle=orthogonalEdgeStyle;rounded=0;orthogonalLoop=1;jettySize=auto;html=1;entryX=1.193;entryY=0.868;entryDx=0;entryDy=0;entryPerimeter=0;dashed=1;" parent="1" source="ds_R7acV1yjQgHGQ___--6" edge="1">
                    <mxGeometry relative="1" as="geometry">
                        <mxPoint x="308.07" y="540.0044827586207" as="sourcePoint"/>
                        <mxPoint x="140.00000000000006" y="540.1300000000001" as="targetPoint"/>
                        <Array as="points">
                            <mxPoint x="260" y="540"/>
                            <mxPoint x="260" y="540"/>
                        </Array>
                    </mxGeometry>
                </mxCell>
                <mxCell id="ds_R7acV1yjQgHGQ___--39" value="&lt;div&gt;1.9: Error de autenticación&lt;/div&gt;" style="edgeLabel;html=1;align=center;verticalAlign=middle;resizable=0;points=[];" parent="ds_R7acV1yjQgHGQ___--38" vertex="1" connectable="0">
                    <mxGeometry x="0.2286" y="2" relative="1" as="geometry">
                        <mxPoint x="18" y="-13" as="offset"/>
                    </mxGeometry>
                </mxCell>
                <mxCell id="ds_R7acV1yjQgHGQ___--41" value="[token y permisos válidos]" style="text;html=1;strokeColor=none;fillColor=none;align=center;verticalAlign=middle;whiteSpace=wrap;rounded=0;" parent="1" vertex="1">
                    <mxGeometry x="160" y="355" width="140" height="20" as="geometry"/>
                </mxCell>
                <mxCell id="ds_R7acV1yjQgHGQ___--42" value="" style="endArrow=none;dashed=1;html=1;entryX=1;entryY=0.586;entryDx=0;entryDy=0;entryPerimeter=0;exitX=0.002;exitY=0.583;exitDx=0;exitDy=0;exitPerimeter=0;strokeWidth=2;" parent="1" source="ds_R7acV1yjQgHGQ___--40" target="ds_R7acV1yjQgHGQ___--40" edge="1">
                    <mxGeometry width="50" height="50" relative="1" as="geometry">
                        <mxPoint x="120" y="494" as="sourcePoint"/>
                        <mxPoint x="180" y="500" as="targetPoint"/>
                    </mxGeometry>
                </mxCell>
                <mxCell id="ds_R7acV1yjQgHGQ___--40" value="alt" style="shape=umlFrame;whiteSpace=wrap;html=1;width=36;height=15;" parent="1" vertex="1">
                    <mxGeometry x="114" y="345" width="616" height="255" as="geometry"/>
                </mxCell>
            </root>
        </mxGraphModel>
    </diagram>
</mxfile>